<svg width="255" height="208" viewBox="0 0 255 208" fill="none" xmlns="http://www.w3.org/2000/svg">
<path d="M87.1932 2.38108C118.293 -1.30916 149.679 -0.0102344 180.866 1.61687C184.988 1.49524 189.1 0.708077 193.224 1.16018C196.757 1.57556 199.921 3.41608 202.752 5.47693C208.455 9.70647 213.239 15.0766 217.304 20.8827C222.113 27.8501 223.159 36.6856 228.008 43.6415C234.407 52.5894 244.613 57.9595 250.695 67.1759C254.803 73.1565 255.498 80.8238 254.721 87.8624C254.047 94.1849 250.748 99.9061 246.491 104.494C240.805 110.557 234.277 116.01 230.032 123.271C227.235 128.049 226.159 133.605 223.418 138.399C216.89 148.205 207.36 155.53 197.412 161.575C183.023 170.259 167.366 176.469 152.339 183.896C145.281 187.327 138.5 191.334 131.271 194.406C124.597 197.321 117.293 198.078 110.199 199.37C104.027 200.316 98.0025 201.996 91.9136 203.347C76.9804 206.597 61.6039 209.122 46.2983 207.49C35.8387 206.361 25.2054 202.572 17.8599 194.735C15.0062 191.503 12.3444 187.914 10.8525 183.836C9.98657 171.453 11.6659 159.097 13.2743 146.849C14.796 135.057 15.7122 122.954 13.1738 111.234C10.7131 101.951 4.87556 94.0541 1.93964 84.9478C-0.361118 78.0562 -0.875189 70.2901 1.82768 63.4398C6.203 55.3686 14.9011 50.6686 18.9063 42.3311C21.1888 37.895 21.6389 32.814 21.4812 27.9029C28.6394 20.7106 37.6002 15.5769 46.97 11.8752C59.8446 6.78733 73.5121 4.09079 87.1932 2.38108Z" fill="#0D0D0D"/>
<path d="M72.3424 13.5163C103.918 9.10008 135.91 7.20327 167.8 8.30955C175.321 8.77984 182.89 8.32075 190.386 9.20981C196.728 10.0294 202.453 13.5163 206.564 18.1541C216.316 29.0804 219.333 44.06 229.292 54.8497C225.013 55.2863 220.741 54.1174 216.481 54.6727C215.203 54.7825 214.073 55.4073 213.048 56.106C219.528 55.3199 226.305 55.5506 232.374 58.0946C240.673 61.3754 247.462 68.2706 249.986 76.6126C251.931 83.1137 250.878 90.3023 247.397 96.1495C243.316 103.042 236.641 108.269 229.227 111.561C229.571 111.716 229.922 111.864 230.273 112.02C231.618 111.532 232.815 110.764 234.01 110.014C234.177 110.345 234.509 111.017 234.677 111.349C232.766 112.553 230.679 113.601 229.269 115.391C225.936 119.305 224.895 124.398 223.01 129C220.997 134.343 217.143 138.786 213.048 142.777C203.185 151.972 191.034 158.399 178.886 164.334C170.198 168.425 161.369 172.232 152.642 176.245C144.995 179.681 137.867 184.066 130.197 187.449C128.496 188.126 126.802 188.939 124.949 189.122C122.332 189.145 119.743 188.417 117.119 188.71C112.527 189.18 108.255 190.979 103.93 192.412C94.9702 195.682 85.4901 197.298 76.0494 198.615C65.4234 199.975 54.6185 200.588 43.9553 199.269C35.2444 198.134 26.1361 195.708 19.7331 189.563C16.3236 186.061 13.4928 181.434 13.9506 176.463C13.8367 156.496 19.3821 136.802 17.6809 116.802C16.9674 110.69 15.9378 104.373 12.5771 99.0294C9.92753 94.5348 6.14382 90.5262 4.86555 85.3957C3.63375 79.2954 3.53149 72.6689 6.42505 66.9695C10.053 59.5749 18.3409 55.5327 21.7737 48.0104C23.6307 44.107 23.7864 39.7334 23.5238 35.5233C32.5205 25.401 45.0988 18.0153 58.7578 15.5855C68.0822 13.8432 77.5183 15.74 86.8706 16.1812C105.666 17.3569 123.987 11.1357 142.776 12.0069C151.421 12.5578 159.863 14.9607 167.681 18.5147C176.308 22.418 184.092 27.7793 192.136 32.6523C194.711 34.1303 197.24 35.7472 200.049 36.8087C191.599 30.3815 182.918 24.0976 173.429 19.1462C163.463 13.991 152.325 10.82 140.991 10.4885C122.207 9.91523 103.823 15.16 85.0392 14.8398C80.7837 14.7076 76.4887 14.4792 72.3424 13.5163Z" fill="#FCFCFC"/>
<path d="M118.889 16.9758C133.978 15.0651 149.691 15.8162 164.117 20.527C172.931 23.3932 181.168 27.7998 188.032 33.6128C190.258 35.6172 192.612 37.5662 194.287 40.0004C182.472 30.3318 168.405 22.5931 152.781 19.4164C143.311 17.4014 133.483 17.0311 123.81 17.8312C116.264 18.5674 109.101 21.2909 101.478 21.5526C87.4887 22.3952 73.4923 20.9973 59.615 19.4504C58.2511 19.3291 56.8942 19.0908 55.5257 19.1397C53.1225 20.2398 51.2915 22.2484 48.573 22.7931C50.3783 20.0313 53.6176 18.2248 57.0974 17.8482C64.0337 17.1077 70.7598 19.2376 77.5864 19.9121C91.4403 21.0335 105.226 18.8291 118.889 16.9758Z" fill="#0D0D0D"/>
<path d="M129.547 24.6087C142.775 23.1232 156.596 24.1635 168.91 29.8862C174.619 32.6785 180.517 37.1014 182.143 44C178.021 36.1207 170.175 31.5882 162.368 29.0816C150.44 25.3157 137.814 24.7872 125.476 25.4442C126.787 24.9562 128.165 24.7182 129.547 24.6087Z" fill="#0D0D0D"/>
<path d="M58.9286 30.4563C68.106 27.4715 78.0926 27.3367 87.4923 29.3502C89.2183 29.725 91.1367 29.7364 92.6334 30.7786C93.6374 31.3156 92.7274 32.3989 92.5211 33.1189C84.1436 29.8004 74.8768 28.66 65.9652 30.0632C60.5834 31.03 55.0687 33.2766 51.6719 37.7332C50.1981 39.5889 49.4944 41.8584 48.573 43.9998C48.7495 40.6768 49.9872 37.5526 51.4771 34.6204C53.4368 32.4972 56.2537 31.4093 58.9286 30.4563Z" fill="#0D0D0D"/>
<path d="M126.625 28.4546C127.548 27.4652 128.593 28.331 129.523 28.7903C126.46 30.6884 124.169 33.861 122.986 37.493C122.816 39.6586 123.115 41.8872 122.5 43.9998C121.129 41.2916 121.377 38.0559 121.611 35.0902C123.556 33.1265 124.603 30.3224 126.625 28.4546Z" fill="#0D0D0D"/>
<path d="M85.0003 36.5892C85.581 36.3793 86.1635 36.1877 86.7532 36.0006C87.3628 37.5952 88.0787 39.1304 89.0526 40.4215C89.0111 44.2813 89.094 48.141 89.0111 52.0007C86.5638 49.2223 88.8776 44.8173 88.0138 41.3796C87.0778 39.7075 85.7144 38.4643 85.0003 36.5892Z" fill="#0D0D0D"/>
<path d="M140.903 41.1141C150.552 39.2592 160.918 39.4643 170.02 43.7061C175.824 46.3689 180.827 51.6285 182.14 58.3598C180.586 59.6582 178.804 60.82 176.766 60.8712C172.103 61.0958 167.789 58.6966 163.178 58.3647C150.405 57.2713 137.785 61.54 126.694 68.0004C123.868 64.9447 119.087 63.8635 117.687 59.4776C116.608 56.7343 118.593 54.2424 120.088 52.2045C125.374 45.8368 133.264 42.7957 140.903 41.1141Z" fill="#0D0D0D"/>
<path d="M129.613 53.1895C134.105 50.6484 139.279 49.4691 144.248 48C143.62 50.4597 145.339 52.5443 145.714 54.887C142.296 54.5256 138.898 55.3813 135.977 56.9973C132.831 58.6431 129.305 60.96 125.519 59.5782C125.151 56.8127 127.189 54.5157 129.613 53.1895Z" fill="#FCFCFC"/>
<path d="M58.104 48.8489C65.3009 47.0577 72.9243 48.2996 79.8278 50.7233C84.4821 52.5123 89.3427 54.8344 92.1238 59.2018C95.0356 58.3523 98.328 57.0758 101.192 58.8001C101.134 59.952 101.176 61.3185 100.217 62.1334C97.9336 64.414 94.1185 64.107 92.0711 66.7477C92.0642 70.8842 92.0894 75.0207 92.0527 79.1572C88.4967 83.1414 81.7812 83.9216 80.0983 89.5655C82.9436 94.5284 86.4607 99.8698 92.1422 101.76C94.4303 101.938 95.9046 99.8168 97.8396 98.9604C98.5458 99.3805 99.2497 99.8121 99.949 100.248C98.8393 103.009 97.4774 105.98 94.7995 107.517C93.0455 108.487 90.9729 107.854 89.384 106.866C83.8355 103.369 80.6142 97.2337 75.1254 93.6651C74.0225 94.8769 72.7845 96.532 70.9594 96.3612C70.0377 95.1424 69.6732 93.6189 69.0106 92.2593C63.8565 93.5473 59.6539 98.6995 53.9954 97.767C66.4748 92.744 76.2465 83.2291 86.7886 75.1638C86.7886 71.9899 86.7886 68.8113 86.7886 65.6328C81.8408 62.6527 75.9599 62.0687 70.3358 61.5124C63.0288 60.7691 55.4398 60.7507 48.573 57.8029C49.5772 53.1701 53.6675 49.8946 58.104 48.8489Z" fill="#0D0D0D"/>
<path d="M170.001 52.1565C171.281 51.7646 172.707 52.0569 173.685 53.69C174.117 54.2217 174.05 55.1982 174.05 56.001C173.125 54.5903 171.922 54.6453 170.78 54.3615C170.143 54.2535 170.131 52.9847 170.001 52.1565Z" fill="#FCFCFC"/>
<path d="M56.6651 52.8786C59.5154 53.219 62.3388 52.0301 65.1891 52.0061C66.5605 51.9102 67.8332 53.1854 68.808 55.199C66.4283 55.0504 64.0597 55.4195 61.6912 55.8989C59.9232 56.1914 57.8931 56.0427 56.6651 52.8786Z" fill="#FCFCFC"/>
<path d="M186.19 52.0864C190.371 51.3583 194.114 55.566 198.332 54.2339C197.633 60.2904 191.609 61.646 188.73 57.9718C190.648 57.5423 193.221 58.814 194.429 55.9518C191.537 55.6264 188.392 55.17 186.19 52.0864Z" fill="#0D0D0D"/>
<path d="M26.3669 57.0221C30.3022 57.6781 34.2245 56.7657 38.1032 56.1392C40.393 55.7079 42.9005 56.2549 44.5264 58.0731C37.5286 57.1152 30.2239 57.2355 23.5765 59.9616C18.0152 62.1112 12.9546 66.4579 10.8825 72.38C8.98882 77.5984 9.55039 83.4205 11.172 88.6321C11.5507 89.7239 11.8141 91.0086 12.7827 91.7191C16.1151 94.3453 20.6772 94.3612 23.9988 96.9715C25.0022 97.6616 24.7345 98.9282 24.6953 99.9995C23.1738 98.9758 21.7438 97.7796 20.0482 97.0805C16.8508 95.6278 13.1614 94.9309 10.6104 92.2707C8.153 86.6278 7.38901 80.068 8.80381 74.012C10.593 66.156 16.5439 59.6938 23.7267 56.8928C24.5843 56.5636 25.4919 56.9745 26.3669 57.0221Z" fill="#0D0D0D"/>
<path d="M210.476 56.6815C213.549 55.7496 216.837 56.0773 220.02 56.0007C225.975 55.956 232.321 57.258 236.816 61.1682C240.866 64.7911 242.436 70.1607 242.759 75.2687C243.048 78.1832 242.621 81.0914 242.533 83.9996C242.199 83.6443 241.863 83.2911 241.529 82.9422C242.007 78.4172 241.881 73.8412 241.391 69.3268C239.433 64.8294 235.828 60.7214 230.918 58.9408C224.415 56.4857 217.281 57.3941 210.476 56.6815Z" fill="#0D0D0D"/>
<path d="M186.19 60.5129C187.771 58.9257 189.512 61.291 190.242 63.9954C188.667 64.1032 187.276 62.5662 186.19 60.5129Z" fill="#0D0D0D"/>
<path d="M202.34 60.6481C210.083 59.0516 218.586 60.3626 225.098 65.083C231.006 69.2728 235.122 76.3868 234.739 83.8433C234.624 90.2007 231.085 95.987 226.409 100.001C224.561 95.8775 227.007 91.79 228.357 87.9713C230.097 83.6292 229.135 78.678 227.061 74.6452C225.014 70.5695 221.104 67.6764 216.811 66.4891C212.989 65.2828 208.941 65.4422 205 65.6849C200.994 69.6392 195.643 71.7401 190.342 73.1962C183.388 74.9806 176.082 75.5279 168.983 74.431C164.206 73.5912 159.153 71.8424 156.096 67.781C154.44 65.6802 153.907 62.9512 153.811 60.3197C160.013 61.2453 163.624 67.3671 169.443 69.2371C174.736 70.9431 180.602 70.3578 185.708 68.2569C191.349 65.9419 196.269 61.8543 202.34 60.6481Z" fill="#0D0D0D"/>
<path d="M17.2008 69.2981C20.3888 66.6627 24.4324 65.3309 28.3322 63.9992C26.3287 68.0742 20.1476 67.5279 18.4926 71.8796C17.1642 75.7882 18.7875 80.0719 17.3129 83.9992C16.94 83.4764 16.572 82.9605 16.1893 82.4447C16.26 78.0437 16.9766 73.6873 17.2008 69.2981Z" fill="#0D0D0D"/>
<path d="M25.5892 69.2492C30.7257 67.1556 36.6726 68.0453 41.9201 69.3643C46.7094 70.6484 51.3902 72.516 55.0992 75.456C57.1996 74.4883 58.9697 73.0296 61.2004 72.2571C62.5026 71.9201 63.7132 72.4256 64.7622 73.0296C64.6247 75.2239 63.6939 77.5845 61.2172 78.6118C56.2856 80.6356 50.6306 79.785 45.3469 79.9945C45.1612 77.3072 43.5985 74.3404 40.2778 73.6254C33.5111 72.1831 26.9372 75.039 20.238 75.4293C20.959 72.8673 22.6712 70.3689 25.5892 69.2492Z" fill="#0D0D0D"/>
<path d="M203.456 73.0294C204.199 72.0612 205.533 72.1508 206.635 72C206.75 74.6686 207.099 77.499 208.834 79.6933C212.371 84.3771 219.059 85.4065 222.621 90.0728C219.732 92.63 215.833 90.6367 212.493 90.4356C210.706 90.1274 210.203 92.2038 209.467 93.3447C208.341 95.1194 208.23 97.2504 209.066 99.154C209.784 100.328 208.125 100.833 207.552 101.587C201.392 107.597 197.25 115.151 192.071 121.898C188 127.37 183.267 132.428 177.727 136.545C168.239 143.612 157.695 149.397 146.466 153.46C135.892 157.344 124.535 158.478 113.336 159.346C100.419 160.185 87.444 160.246 74.5276 159.357C65.5149 158.642 56.4387 157.65 47.7772 155.038C44.2564 153.912 40.5816 152.588 38.0758 149.823C34.3511 145.788 32.3437 140.609 30.9118 135.466C28.0413 124.354 27.6697 112.687 29.2987 101.375C30.0531 96.0264 32.7742 91.2421 35.3774 86.5583C36.6371 84.6066 35.9687 82.1893 36.7458 80.113C37.2058 78.9109 38.7419 79.5862 39.7116 79.4966C42.0316 84.27 40.6382 89.7581 42.3261 94.6648C51.3569 103.337 64.0173 107.558 76.4534 109.072C94.4335 111.109 112.581 108.43 130.052 104.34C155.137 98.2798 179.259 89.0084 202.645 78.4628C202.697 76.6488 202.321 74.6118 203.456 73.0294Z" fill="#0D0D0D"/>
<path d="M121.428 84.482C121.585 81.122 124.928 79.6863 127.595 80.0563C130.96 80.4844 134.624 81.4501 137.07 84.1888C137.852 86.3225 137.58 88.7588 137.537 91.0158C137.216 94.3037 136.204 98.2593 133.165 99.6764C131.727 100.444 130.181 99.6601 128.771 99.218C128.771 98.1872 128.571 97.0913 129.011 96.1326C129.839 94.1734 132.076 93.4171 132.714 91.3253C133.214 89.8663 132.757 88.3353 132.512 86.881C128.941 85.3755 124.917 86.2806 121.428 84.482Z" fill="#0D0D0D"/>
<path d="M138.037 83.9051C137.551 82.5804 137.138 80.608 138.902 79.9996C139.368 80.1247 140.285 80.3626 140.745 80.4902C140.127 80.9293 139.508 81.3611 138.887 81.7953C139.009 83.3899 140.259 84.7098 141.909 85.0434C147.95 86.4565 154.237 84.5724 160.306 85.6126C161.637 85.7279 162.063 86.876 161.85 87.9996C156.254 85.0606 149.72 87.4035 143.718 86.8638C141.548 86.7313 138.809 86.1032 138.037 83.9051Z" fill="#0D0D0D"/>
<path d="M16.1893 84.0006C16.4663 84.0918 17.0291 84.2778 17.3106 84.3724C18.8012 85.9717 22.066 86.7315 24.2843 88.0006C22.3254 87.8759 20.2258 87.6865 18.733 86.9475C17.1083 86.2119 16.5565 85.0618 16.1893 84.0006Z" fill="#0D0D0D"/>
<path d="M182.627 94.1233C190.845 91.4113 197.429 84.3741 206.425 84.0006C206.565 88.8383 204.304 93.55 200.631 96.6811C195.514 101.121 188.757 103.089 182.146 104.001C183.765 100.883 182.118 97.415 182.627 94.1233Z" fill="#FCFCFC"/>
<path d="M241.649 84.0006C242.053 84.448 242.454 84.9024 242.855 85.3498C242.095 89.5977 241.169 93.8269 239.898 97.9909C235.544 100.137 231.488 102.97 226.432 103.872C225.139 104.205 223.854 103.819 222.617 103.52C227.473 102.863 232.413 101.3 235.623 98.0678C239.531 94.1485 241.225 89.0011 241.649 84.0006Z" fill="#0D0D0D"/>
<path d="M110.08 88.7585C115.118 87.4009 120.497 87.994 125.421 89.5299C125.589 91.7586 125.416 94.0544 124.209 96.0004C118.788 91.1725 111.306 96.4267 105.238 93.5795C105.549 91.0821 107.736 89.34 110.08 88.7585Z" fill="#0D0D0D"/>
<path d="M141.671 104.832C153.885 102.12 165.762 98.3309 178.099 96C178.022 100.598 175.462 105.165 170.882 107.619C162.843 112.034 152.959 112.504 144.444 116C143.37 112.305 142.823 108.509 141.671 104.832Z" fill="#FCFCFC"/>
<path d="M36.4381 114.214C36.5438 108.983 39.9468 104.21 43.5884 100.001C45.7946 106.624 43.6839 113.557 41.4744 120.001C38.6033 118.977 36.2472 116.852 36.4381 114.214Z" fill="#FCFCFC"/>
<path d="M188.501 110.888C191.505 109.22 194.894 108.24 198.336 108.001C192.524 112.613 191.13 121.502 183.435 124.001C182.553 122.104 181.811 120.016 182.305 117.911C183.013 114.735 185.708 112.423 188.501 110.888Z" fill="#FCFCFC"/>
<path d="M50.0983 122.367C49.4269 117.72 46.4424 111.656 51.2826 108.001C53.8256 110.254 57.2383 111.37 60.6748 112.106C61.0528 114.982 58.679 117.24 57.73 119.825C57.1828 121.274 58.0076 122.701 58.6526 124.001C55.8901 123.147 53.1356 121.756 50.0983 122.367Z" fill="#FCFCFC"/>
<path d="M115.725 112.758C123.479 110.969 131.247 109.211 139.118 108.001C140.235 111.866 140.615 115.902 141.669 119.778C135.627 120.445 129.9 122.71 123.899 123.584C120.407 124.128 116.858 124.075 113.347 123.791C113.383 120.357 113.284 116.93 113.376 113.5C114.032 112.988 114.952 113.004 115.725 112.758Z" fill="#FCFCFC"/>
<path d="M60.7138 121.452C63.6141 118.909 61.8957 114.72 64.4436 112C70.7679 115.182 78.357 113.318 85.0001 115.53C82.67 117.911 84.5362 121.182 84.1629 124C76.3016 123.984 68.1267 124.205 60.7138 121.452Z" fill="#FCFCFC"/>
<path d="M90.595 113.763C95.5525 114.657 100.297 112.013 105.223 112C105.249 115.992 105.229 119.992 105.239 123.985C99.8843 123.998 94.5356 124.016 89.1829 123.977C88.4797 120.317 90.7837 117.37 90.595 113.763Z" fill="#FCFCFC"/>
<path d="M149.907 126.238C158.509 124.06 166.604 120.216 174.437 116C173.723 120.549 174.727 125.481 178.095 128.661C170.17 133.438 163.33 140.037 154.943 144C154.84 138.8 150.351 135.26 149.858 130.189C149.665 128.871 149.809 127.549 149.907 126.238Z" fill="#FCFCFC"/>
<path d="M117.601 135.336C126.839 134.259 135.558 131.086 144.182 128C143.949 130.855 143.884 133.858 145.316 136.484C146.971 139.652 149.278 142.619 149.76 146.203C141.661 148.037 133.884 151.191 125.515 151.899C122.958 152.178 120.383 151.843 117.892 151.328C118.917 146.017 116.696 140.68 117.601 135.336Z" fill="#FCFCFC"/>
<path d="M36.7488 135.214C36.3299 134.211 36.3902 133.071 36.5393 132.001C37.5209 134.8 39.2196 137.122 40.1976 139.924C40.7159 141.242 40.4479 142.725 39.9828 144.001C39.4344 140.802 37.8351 138.139 36.7488 135.214Z" fill="#FCFCFC"/>
<path d="M47.9403 136.002C52.4467 140.225 54.8119 146.183 56.6667 152.002C53.1612 151.079 49.4715 150.662 46.1951 149.021C45.2141 148.597 44.9079 147.503 44.5245 146.606C45.0598 147.086 45.5826 147.574 46.1054 148.078C47.2283 147.758 48.5403 147.633 49.337 146.644C50.6242 142.883 45.5776 139.595 47.9403 136.002Z" fill="#FCFCFC"/>
<path d="M89.049 138.883C96.8636 139.562 104.708 138.264 112.176 136.002C112.568 142.176 110.717 148.733 113.334 154.595C106.423 156.89 99.0496 155.636 91.9174 155.841C91.2098 150.146 89.8221 144.566 89.049 138.883Z" fill="#FCFCFC"/>
<path d="M56.6651 140.012C59.6267 139.828 62.0819 141.865 65.088 141.443C64.9355 145.311 68.0369 148.332 68.808 152C66.0032 151.635 63.0268 151.523 60.5863 150.083C60.9062 149.178 61.4697 148.195 60.9549 147.251C59.9614 144.64 57.593 142.659 56.6651 140.012Z" fill="#FCFCFC"/>
<path d="M72.8596 140.799C76.6122 139.831 80.9735 139.271 84.2592 141.976C88.0053 145.322 88.4918 151.038 89.0503 155.951C85.3021 156.122 81.5059 155.895 77.9256 154.552C76.9199 149.678 74.2101 145.536 72.8596 140.799Z" fill="#FCFCFC"/>
<path d="M166.058 154.694C172.476 151.71 179.079 148.666 186.189 148C174.713 152.169 164.096 158.309 153.067 163.499C138.814 170.249 123.418 175.906 107.466 175.206C101.583 174.502 95.7215 175.738 89.8274 175.677C78.5051 175.542 67.0474 176.966 55.8307 174.724C51.1875 173.703 46.3469 171.894 43.3219 167.969C41.7565 166.084 40.9417 163.716 40.4758 161.329C44.5544 168.286 52.3351 171.615 59.79 173.332C69.0557 175.337 78.6291 176.001 88.0761 175.16C100.743 174.61 113.576 174.724 125.982 171.687C140.141 168.191 152.996 161.019 166.058 154.694Z" fill="#0D0D0D"/>
<path d="M178.493 155.9C184.854 152.741 191.074 148.55 198.335 148C190.448 153.351 181.855 157.572 173.214 161.542C139.196 176.751 101.889 183.955 64.7391 183.996C57.3448 184.038 49.8077 183.727 42.6991 181.482C37.0593 179.702 31.789 176.13 28.8127 170.893C28.7243 168.682 27.8493 166.231 28.713 164.139C29.0031 163.97 29.5834 163.636 29.8736 163.465C29.9325 166.156 29.8917 168.851 29.9031 171.542C33.106 174.799 37.15 177.096 41.4115 178.64C47.9512 181.066 54.9148 182.037 61.8308 182.546C72.7 183.206 83.5987 182.528 94.4159 181.377C123.696 178.277 152.235 169.219 178.493 155.9Z" fill="#0D0D0D"/>
<path d="M72.8596 164.777C80.9661 164.944 89.0771 164.47 97.1701 165.132C102.521 165.159 108.286 161.5 113.336 167.198C104.514 166.278 95.7013 167.957 86.8773 168C82.1995 167.699 77.3894 167.984 72.8596 164.777Z" fill="#0D0D0D"/>
</svg>
